<svg width="1200" height="630" viewBox="0 0 1200 630" xmlns="http://www.w3.org/2000/svg">
  <!-- Background -->
  <rect width="1200" height="630" fill="#0f172a" />
  
  <!-- Mystical portal background -->
  <circle cx="600" cy="315" r="250" fill="url(#portalGrad)" />
  <circle cx="600" cy="315" r="200" fill="#0f172a" />
  
  <!-- Code symbols floating around -->
  <g class="code-symbols" fill="#8b5cf6" opacity="0.8">
    <text x="400" y="200" font-family="monospace" font-size="24">&lt;/&gt;</text>
    <text x="750" y="180" font-family="monospace" font-size="24">{ }</text>
    <text x="500" y="450" font-family="monospace" font-size="24">( )</text>
    <text x="700" y="420" font-family="monospace" font-size="24">&lt;div&gt;</text>
    <text x="350" y="350" font-family="monospace" font-size="24">import</text>
    <text x="800" y="300" font-family="monospace" font-size="24">return</text>
    <text x="450" y="250" font-family="monospace" font-size="24">async</text>
    <text x="650" y="480" font-family="monospace" font-size="24">function</text>
  </g>
  
  <!-- Magical code circle -->
  <circle cx="600" cy="315" r="150" fill="none" stroke="#ec4899" stroke-width="2" stroke-dasharray="10 5" />
  <circle cx="600" cy="315" r="120" fill="none" stroke="#3b82f6" stroke-width="2" stroke-dasharray="8 4" />
  
  <!-- Central code symbol -->
  <g transform="translate(600, 315)">
    <rect x="-50" y="-60" width="100" height="120" rx="10" fill="none" stroke="#f8fafc" stroke-width="3" />
    <text x="-35" y="0" font-family="monospace" font-size="80" fill="#f8fafc">&lt;/&gt;</text>
  </g>
  
  <!-- Floating cartoon cat silhouette with gadgets -->
  <g transform="translate(800, 200) scale(0.8)">
    <circle cx="0" cy="0" r="40" fill="#f8fafc" opacity="0.2" />
    <path d="M-20,-20 C-30,-40 -40,-30 -40,-10 C-40,10 -30,30 0,30 C30,30 40,10 40,-10 C40,-30 30,-40 20,-20" fill="#f8fafc" opacity="0.6" />
    <circle cx="-15" cy="-5" r="5" fill="#3b82f6" />
    <circle cx="15" cy="-5" r="5" fill="#3b82f6" />
    <path d="M-10,10 Q0,20 10,10" stroke="#0f172a" stroke-width="2" fill="none" />
    <!-- Gadget elements -->
    <circle cx="0" cy="-35" r="8" fill="#ec4899" />
    <rect x="-3" y="-50" width="6" height="15" fill="#10b981" />
  </g>
  
  <!-- Title -->
  <text x="600" y="520" font-family="Poppins, sans-serif" font-size="48" font-weight="700" text-anchor="middle" fill="#f8fafc">
    Doctor StrangeCode
  </text>
  <text x="600" y="570" font-family="Poppins, sans-serif" font-size="24" font-weight="400" text-anchor="middle" fill="#94a3b8">
    How I Learned to Stop Coding and Embrace the Vibes
  </text>
  
  <!-- Gradients -->
  <defs>
    <linearGradient id="portalGrad" x1="0%" y1="0%" x2="100%" y2="100%">
      <stop offset="0%" stop-color="#3b82f6" />
      <stop offset="50%" stop-color="#8b5cf6" />
      <stop offset="100%" stop-color="#ec4899" />
    </linearGradient>
  </defs>
  
  <!-- Animation for the portal (works in some SVG viewers) -->
  <style>
    @keyframes rotate {
      from { transform: rotate(0deg); }
      to { transform: rotate(360deg); }
    }
    .code-symbols {
      animation: rotate 60s linear infinite;
      transform-origin: 600px 315px;
    }
  </style>
</svg> 