<svg width="800" height="450" viewBox="0 0 800 450" xmlns="http://www.w3.org/2000/svg">
  <!-- Background -->
  <rect x="0" y="0" width="800" height="450" fill="#F3F4F6" />
  
  <!-- Header -->
  <rect x="0" y="0" width="800" height="70" fill="#FFFFFF" />
  <rect x="20" y="20" width="150" height="30" rx="5" fill="#4F46E5" />
  <rect x="600" y="20" width="50" height="30" rx="5" fill="#E5E7EB" />
  <rect x="670" y="20" width="50" height="30" rx="5" fill="#E5E7EB" />
  <rect x="740" y="20" width="40" height="30" rx="5" fill="#E5E7EB" />
  
  <!-- Hero Section -->
  <rect x="100" y="100" width="600" height="80" rx="5" fill="#8B5CF6" />
  <rect x="200" y="200" width="400" height="40" rx="5" fill="#9CA3AF" />
  
  <!-- Content Blocks -->
  <rect x="100" y="280" width="280" height="150" rx="10" fill="#FFFFFF" />
  <rect x="120" y="300" width="240" height="20" rx="5" fill="#D1D5DB" />
  <rect x="120" y="330" width="240" height="80" rx="5" fill="#E5E7EB" />
  
  <rect x="420" y="280" width="280" height="150" rx="10" fill="#FFFFFF" />
  <rect x="440" y="300" width="240" height="20" rx="5" fill="#D1D5DB" />
  <rect x="440" y="330" width="240" height="80" rx="5" fill="#E5E7EB" />
</svg> 