<svg width="800" height="450" viewBox="0 0 800 450" xmlns="http://www.w3.org/2000/svg">
  <!-- Background -->
  <rect x="0" y="0" width="800" height="450" fill="#111827" />
  
  <!-- Toon-friendly UI elements -->
  <circle cx="400" cy="150" r="100" fill="#EC4899" />
  <circle cx="400" cy="150" r="80" fill="#8B5CF6" />
  <circle cx="400" cy="150" r="60" fill="#3B82F6" />
  
  <!-- Exaggerated buttons -->
  <rect x="200" y="300" width="120" height="60" rx="30" fill="#10B981" />
  <rect x="340" y="300" width="120" height="60" rx="30" fill="#F59E0B" />
  <rect x="480" y="300" width="120" height="60" rx="30" fill="#EF4444" />
  
  <!-- Cartoon character -->
  <circle cx="650" cy="150" r="50" fill="#FFFFFF" />
  <circle cx="635" cy="140" r="10" fill="#000000" />
  <circle cx="665" cy="140" r="10" fill="#000000" />
  <path d="M 630 170 Q 650 190 670 170" stroke="#000000" stroke-width="5" fill="none" />
  
  <!-- Cartoon speech bubble -->
  <path d="M 550 120 Q 520 120 520 150 Q 520 180 550 180 L 580 180 L 590 200 L 600 180 L 630 180 Q 660 180 660 150 Q 660 120 630 120 Z" fill="#FFFFFF" />
  <text x="590" y="155" font-family="Arial" font-size="20" text-anchor="middle" fill="#000000">Hello!</text>
</svg> 